<?xml version="1.0" standalone="no"?><!DOCTYPE svg PUBLIC "-//W3C//DTD SVG 1.1//EN" "http://www.w3.org/Graphics/SVG/1.1/DTD/svg11.dtd"><svg t="1604334521369" class="icon" viewBox="0 0 1024 1024" version="1.1" xmlns="http://www.w3.org/2000/svg" p-id="2360" xmlns:xlink="http://www.w3.org/1999/xlink" width="200" height="200"><defs><style type="text/css"></style></defs><path d="M117.76 0h481.109333c104.448 0 186.88 24.405333 245.76 73.130667 54.357333 45.909333 82.346667 107.52 82.346667 185.002666 0 57.344-14.762667 106.154667-42.666667 146.261334-27.989333 37.290667-67.669333 64.597333-120.661333 84.650666 69.12 12.885333 120.661333 40.106667 155.989333 81.749334 33.792 40.106667 51.456 96.085333 51.456 164.949333 0 103.253333-36.778667 179.2-108.885333 228.010667-61.781333 40.106667-150.016 60.245333-261.888 60.245333H117.76V0z m169.984 163.157333v278.528h244.394667c68.266667 0 116.053333-12.288 144.725333-34.133333 27.306667-23.210667 42.325333-60.074667 42.325333-110.592 0-46.421333-15.018667-80.554667-42.325333-101.034667-30.037333-21.845333-76.458667-32.768-141.994667-32.768H287.744z m0 409.6v303.104h264.874667c60.074667 0 107.861333-9.557333 141.994666-28.672 43.690667-24.576 65.536-62.805333 65.536-117.418666 0-55.978667-16.384-95.573333-47.786666-120.149334-32.768-24.576-84.650667-36.864-155.648-36.864H287.744z" p-id="2361"></path></svg>