<?xml version="1.0" standalone="no"?><!DOCTYPE svg PUBLIC "-//W3C//DTD SVG 1.1//EN" "http://www.w3.org/Graphics/SVG/1.1/DTD/svg11.dtd"><svg t="1598685720174" class="icon" viewBox="0 0 1024 1024" version="1.1" xmlns="http://www.w3.org/2000/svg" p-id="4966" xmlns:xlink="http://www.w3.org/1999/xlink" width="200" height="200"><defs><style type="text/css"></style></defs><path d="M882.215385 974.769231H141.784615c-51.2 0-92.553846-41.353846-92.553846-92.553846V141.784615c0-51.2 41.353846-92.553846 92.553846-92.553846h740.43077c51.2 0 92.553846 41.353846 92.553846 92.553846v740.43077c0 51.2-41.353846 92.553846-92.553846 92.553846z m-708.923077-771.938462v616.369231c0 17.723077 13.784615 31.507692 31.507692 31.507692h616.369231c17.723077 0 31.507692-13.784615 31.507692-31.507692V202.830769c0-17.723077-13.784615-31.507692-31.507692-31.507692H204.8c-17.723077 1.969231-31.507692 15.753846-31.507692 31.507692zM695.138462 531.692308c15.753846 0 31.507692 13.784615 31.507692 31.507692v133.907692c0 17.723077-13.784615 31.507692-31.507692 31.507693h-141.784616c-17.723077 0-29.538462-13.784615-31.507692-31.507693 0-11.815385 5.907692-19.692308 11.815384-27.56923l29.538462-29.538462c19.692308-19.692308 41.353846-37.415385 61.046154-55.138462 13.784615-13.784615 27.569231-25.6 43.323077-39.384615 3.938462-3.938462 7.876923-7.876923 11.815384-9.846154 7.876923-3.938462 11.815385-3.938462 15.753847-3.938461z" p-id="4967"></path></svg>