<?xml version="1.0" standalone="no"?><!DOCTYPE svg PUBLIC "-//W3C//DTD SVG 1.1//EN" "http://www.w3.org/Graphics/SVG/1.1/DTD/svg11.dtd"><svg t="1604334866929" class="icon" viewBox="0 0 1024 1024" version="1.1" xmlns="http://www.w3.org/2000/svg" p-id="4671" xmlns:xlink="http://www.w3.org/1999/xlink" width="200" height="200"><defs><style type="text/css"></style></defs><path d="M992 471.6H645.6c-32.8-10.1-75.7-21.2-128.6-33.2-87.6-19.8-141.7-39.2-162.4-58-21.1-18.9-31.7-42.9-31.7-72.2 0-33.7 14.9-62.5 44.7-86.4C397.4 198 444.9 186 510.1 186c62.6 0 109.9 13.1 141.9 39.4 32 26.3 50.8 65.2 56.4 116.6l103.3-7.8c-1.9-47.8-15.2-90.5-40-128.3-24.8-37.8-60.3-66.4-106.3-85.8-46.1-19.4-99.3-29.2-159.7-29.2-54.8 0-104.6 9.3-149.4 27.8-44.8 18.5-78.9 45.6-102.2 81.4-23.3 35.7-35 74.1-35 115.2 0 37.4 9.5 71.2 28.6 101.3 13 20.6 30.6 38.8 52.8 54.8H32v80.8h496.7c54 13.4 90 23.7 108 30.7 34.1 13 58.5 29 73.3 48 14.8 19.1 22.2 41.4 22.2 66.9 0 25.2-7.7 48.4-23 69.7-15.4 21.3-38.8 38-70.2 50.3-31.5 12.2-67.7 18.3-108.8 18.3-46.3 0-87.9-8.1-124.9-24.2s-64.3-37.2-81.9-63.3c-17.6-26.1-28.8-59.5-33.6-100.2L188 657.5c1.5 54.4 16.4 103.2 44.7 146.3C261 847 300 879.3 349.8 900.7c49.8 21.5 111.5 32.2 185.2 32.2 58.1 0 110.4-10.6 156.9-31.9 46.5-21.3 82.1-51.1 106.9-89.4 24.8-38.3 37.2-79.1 37.2-122.5 0-43.7-11.3-82.3-33.9-115.8-4.9-7.3-10.4-14.3-16.4-21H992v-80.7z" p-id="4672"></path></svg>