<?xml version="1.0" standalone="no"?><!DOCTYPE svg PUBLIC "-//W3C//DTD SVG 1.1//EN" "http://www.w3.org/Graphics/SVG/1.1/DTD/svg11.dtd"><svg t="1604073775131" class="icon" viewBox="0 0 1024 1024" version="1.1" xmlns="http://www.w3.org/2000/svg" p-id="1098" xmlns:xlink="http://www.w3.org/1999/xlink" width="200" height="200"><defs><style type="text/css"></style></defs><path d="M278.95656296 218.66571852h671.37991112c23.18032592 0 41.99158518 18.81125925 41.99158517 41.99158518s-18.81125925 41.99158518-41.99158517 41.99158519H278.95656296c-23.18032592 0-41.99158518-18.81125925-41.99158518-41.99158519 0-23.30168889 18.81125925-41.99158518 41.99158518-41.99158518zM278.95656296 470.3725037h503.53493334c23.18032592 0 41.99158518 18.81125925 41.99158518 41.99158519s-18.81125925 41.99158518-41.99158518 41.99158519H278.95656296c-23.18032592 0-41.99158518-18.81125925-41.99158518-41.99158519s18.81125925-41.99158518 41.99158518-41.99158519zM278.95656296 722.20065185h671.37991112c23.18032592 0 41.99158518 18.81125925 41.99158517 41.99158518s-18.81125925 41.99158518-41.99158517 41.99158519H278.95656296c-23.18032592 0-41.99158518-18.81125925-41.99158518-41.99158519s18.81125925-41.99158518 41.99158518-41.99158518z" fill="#999999" p-id="1099"></path><path d="M90.11579258 197.66992592c34.70980741 0 62.98737778 28.15620741 62.98737778 62.98737778 0 34.70980741-28.15620741 62.98737778-62.98737778 62.98737778-34.70980741 0-62.98737778-28.15620741-62.98737777-62.98737778s28.27757037-62.98737778 62.98737777-62.98737778zM90.11579258 449.37671111c34.70980741 0 62.98737778 28.15620741 62.98737778 62.98737778 0 34.70980741-28.15620741 62.98737778-62.98737778 62.98737778-34.70980741 0-62.98737778-28.15620741-62.98737777-62.98737778 0-34.70980741 28.27757037-62.98737778 62.98737777-62.98737778zM90.11579258 701.20485925c34.70980741 0 62.98737778 28.15620741 62.98737778 62.98737778 0 34.70980741-28.15620741 62.98737778-62.98737778 62.98737779-34.70980741 0-62.98737778-28.15620741-62.98737777-62.98737779s28.27757037-62.98737778 62.98737777-62.98737778z" fill="#999999" p-id="1100"></path></svg>