<?xml version="1.0" standalone="no"?><!DOCTYPE svg PUBLIC "-//W3C//DTD SVG 1.1//EN" "http://www.w3.org/Graphics/SVG/1.1/DTD/svg11.dtd"><svg t="1604073769454" class="icon" viewBox="0 0 1024 1024" version="1.1" xmlns="http://www.w3.org/2000/svg" p-id="963" xmlns:xlink="http://www.w3.org/1999/xlink" width="200" height="200"><defs><style type="text/css"></style></defs><path d="M127.488 207.36v168.448h-25.6V238.08c-10.24 9.728-23.04 16.896-38.912 20.992v-25.6c7.68-2.048 15.36-5.12 23.552-9.728 8.704-5.12 15.36-10.752 20.992-16.896l19.968 0.512z" fill="#999999" p-id="964"></path><path d="M127.488 207.36v168.448h-25.6V238.08c-10.24 9.728-23.04 16.896-38.912 20.992v-25.6c7.68-2.048 15.36-5.12 23.552-9.728 8.704-5.12 15.36-10.752 20.992-16.896l19.968 0.512z" fill="#999999" p-id="965"></path><path d="M132.608 380.928h-35.84V249.344c-9.216 6.656-19.968 11.776-32.256 15.36l-6.144 1.536v-36.352l4.096-1.024c6.656-1.536 14.336-4.608 22.528-9.216 8.192-5.12 14.848-10.24 19.968-15.872l1.536-1.536H133.12v178.688z m-25.6-10.24h15.36V212.48h-11.776c-5.632 5.632-12.288 10.752-20.48 15.872-7.68 4.096-14.336 7.168-20.992 9.216v14.336c11.776-4.096 22.016-10.24 29.696-17.92l8.704-8.192c-0.512 0.512-0.512 144.896-0.512 144.896z" fill="#999999" p-id="966"></path><path d="M140.288 388.608h-51.2V263.168c-6.656 3.584-14.336 6.656-22.528 8.704l-15.872 4.608V224.256l9.728-2.56c6.144-1.536 12.8-4.608 20.48-8.704 7.68-4.608 13.824-9.728 17.92-14.336l3.584-4.096h37.888v194.048z m-25.6-25.6V220.16v142.848zM140.288 480.256c8.192 7.68 12.288 17.408 12.288 29.184 0 11.776-4.608 22.528-13.312 32.256-5.632 5.632-14.848 12.8-28.16 22.016-14.848 9.728-23.552 18.432-26.624 25.6h68.096v18.432H58.88c0-13.824 4.608-25.6 13.824-35.84 5.12-6.144 15.36-14.336 30.72-25.088 9.216-6.656 15.872-11.776 19.456-15.872 6.144-7.168 9.216-14.336 9.216-22.528 0-7.68-2.048-13.312-6.144-17.408s-10.752-4.608-18.944-4.608c-8.704 0-15.36 3.072-19.456 8.704-4.608 5.632-7.168 13.824-7.168 25.088h-20.992c0-15.36 4.608-27.648 13.312-36.864 8.704-10.24 20.48-14.848 35.328-14.848 12.8 0.512 23.552 4.096 32.256 11.776z" fill="#999999" p-id="967"></path><path d="M140.288 480.256c8.192 7.68 12.288 17.408 12.288 29.184 0 11.776-4.608 22.528-13.312 32.256-5.632 5.632-14.848 12.8-28.16 22.016-14.848 9.728-23.552 18.432-26.624 25.6h68.096v18.432H58.88c0-13.824 4.608-25.6 13.824-35.84 5.12-6.144 15.36-14.336 30.72-25.088 9.216-6.656 15.872-11.776 19.456-15.872 6.144-7.168 9.216-14.336 9.216-22.528 0-7.68-2.048-13.312-6.144-17.408s-10.752-4.608-18.944-4.608c-8.704 0-15.36 3.072-19.456 8.704-4.608 5.632-7.168 13.824-7.168 25.088h-20.992c0-15.36 4.608-27.648 13.312-36.864 8.704-10.24 20.48-14.848 35.328-14.848 12.8 0.512 23.552 4.096 32.256 11.776z" fill="#999999" p-id="968"></path><path d="M163.328 618.496H48.64v-10.24c0-15.872 5.632-30.208 16.384-42.496 5.632-6.656 15.872-14.848 32.768-26.624 5.632-4.096 13.824-10.24 17.92-14.336 4.608-5.12 6.656-9.728 6.656-15.36 0-7.168-2.048-9.216-3.072-9.728-2.56-2.048-6.656-3.072-12.288-3.072-7.168 0-9.728 2.56-11.264 4.608-3.584 4.096-5.12 10.24-5.12 18.944v9.728h-40.96v-10.24c0-17.92 5.632-32.256 15.872-43.52 10.24-11.776 24.576-17.92 42.496-17.92 15.872 0 29.184 4.608 39.424 14.336s15.872 22.016 15.872 36.864c0 14.336-5.12 27.648-15.872 39.424-6.144 6.656-15.872 13.824-30.208 23.552-4.096 2.56-7.168 5.12-9.728 7.168h56.32v38.912z m-93.184-20.48l5.12-11.776v-0.512c-2.56 3.584-4.096 7.68-5.12 12.288z m71.68-95.232c0.512 2.048 0.512 4.608 0.512 6.656 0 4.096-0.512 8.192-2.048 12.288 1.536-3.584 2.048-7.68 2.048-11.776 0-2.56 0-5.12-0.512-7.168z m-71.168 7.168c0.512-1.536 1.024-3.584 1.024-5.12 0 2.048-0.512 3.584-1.024 5.12zM140.288 725.504c8.192 6.656 12.288 15.872 12.288 27.648 0 14.848-7.68 25.088-22.528 30.208 8.192 2.56 14.336 6.144 18.432 11.264 4.608 5.12 7.168 11.776 7.168 19.968 0 12.8-4.608 23.04-12.8 30.72-9.216 8.192-20.992 12.288-35.84 12.288-13.824 0-25.088-3.584-33.792-10.752-9.728-8.192-14.848-19.968-15.872-34.816h20.992c0.512 9.216 3.072 16.384 9.216 20.992 5.12 4.608 11.776 7.168 19.456 7.168 8.704 0 15.872-2.56 20.992-7.68 4.608-4.608 7.168-10.24 7.168-16.896 0-8.192-2.56-13.824-7.68-17.92-4.608-4.096-11.776-5.632-20.48-5.632h-10.24v-15.872h9.728c8.704 0 14.848-2.048 18.944-5.632 4.096-3.584 6.656-9.216 6.656-15.872 0-7.168-2.048-12.288-6.144-15.872-4.096-4.096-10.752-5.632-18.432-5.632-8.192 0-14.848 2.048-19.456 6.144-4.608 4.096-7.68 10.752-8.192 18.944h-20.48c1.024-13.824 6.144-24.064 15.36-31.744 8.704-7.68 19.456-11.264 32.768-11.264 13.312 0.512 24.064 3.584 32.768 10.24z" fill="#999999" p-id="969"></path><path d="M140.288 725.504c8.192 6.656 12.288 15.872 12.288 27.648 0 14.848-7.68 25.088-22.528 30.208 8.192 2.56 14.336 6.144 18.432 11.264 4.608 5.12 7.168 11.776 7.168 19.968 0 12.8-4.608 23.04-12.8 30.72-9.216 8.192-20.992 12.288-35.84 12.288-13.824 0-25.088-3.584-33.792-10.752-9.728-8.192-14.848-19.968-15.872-34.816h20.992c0.512 9.216 3.072 16.384 9.216 20.992 5.12 4.608 11.776 7.168 19.456 7.168 8.704 0 15.872-2.56 20.992-7.68 4.608-4.608 7.168-10.24 7.168-16.896 0-8.192-2.56-13.824-7.68-17.92-4.608-4.096-11.776-5.632-20.48-5.632h-10.24v-15.872h9.728c8.704 0 14.848-2.048 18.944-5.632 4.096-3.584 6.656-9.216 6.656-15.872 0-7.168-2.048-12.288-6.144-15.872-4.096-4.096-10.752-5.632-18.432-5.632-8.192 0-14.848 2.048-19.456 6.144-4.608 4.096-7.68 10.752-8.192 18.944h-20.48c1.024-13.824 6.144-24.064 15.36-31.744 8.704-7.68 19.456-11.264 32.768-11.264 13.312 0.512 24.064 3.584 32.768 10.24z" fill="#999999" p-id="970"></path><path d="M105.984 861.696c-14.848 0-27.136-4.096-36.352-11.776-10.24-8.704-16.384-21.504-17.408-37.888l-0.512-4.608h29.696v4.096c0.512 8.192 2.56 14.336 7.68 18.432 4.096 4.096 9.728 5.632 16.896 5.632 7.68 0 13.824-2.048 18.432-6.656 4.096-4.096 5.632-8.704 5.632-13.824 0-6.656-2.048-11.776-5.632-14.336-3.584-3.072-9.728-4.608-17.92-4.608H92.16v-24.064h13.824c7.168 0 12.8-1.536 16.384-4.608 3.584-3.072 5.12-7.168 5.12-12.8s-1.536-9.728-4.608-12.8c-3.072-3.072-8.704-4.608-15.872-4.608s-12.8 2.048-16.384 5.12c-4.096 3.584-6.144 9.216-7.168 16.384l-0.512 3.584h-28.672l0.512-4.608c1.024-14.336 6.656-26.112 16.384-34.816 8.704-8.192 20.992-12.288 35.328-12.288 14.848 0 26.624 3.584 35.84 10.752 9.216 7.68 13.824 17.92 13.824 30.72 0 13.312-5.632 23.552-16.384 29.696 4.608 2.56 8.192 5.12 11.264 8.704 5.12 5.632 7.68 13.312 7.68 22.528 0 13.824-4.608 25.088-14.336 33.792-9.728 10.24-22.528 14.848-38.4 14.848z m-44.544-45.568c1.536 12.288 6.144 20.992 14.336 27.648 7.68 6.656 17.92 9.728 30.72 9.728 13.312 0 24.576-3.584 33.28-11.264 7.68-7.168 11.776-16.384 11.776-28.16 0-7.168-2.048-12.8-5.632-16.896-3.584-4.608-9.216-7.68-16.384-10.24l-12.288-4.096 12.288-4.096c13.312-4.608 19.968-12.8 19.968-26.112 0-10.24-3.584-18.432-10.752-24.064-7.68-6.144-17.408-9.216-30.208-9.216-12.8 0-22.528 3.584-29.696 10.24-7.168 6.144-11.776 14.336-13.312 24.576h12.288c1.024-7.68 4.096-13.312 9.216-17.92 5.632-4.608 12.8-7.168 22.016-7.168 9.216 0 16.384 2.048 21.504 6.656 4.608 4.608 7.168 10.752 7.168 18.944 0 7.68-2.56 14.336-7.68 18.944-5.12 4.096-12.288 6.656-21.504 6.656h-5.632v7.168h5.632c10.24 0 17.92 2.048 23.04 6.656 6.144 4.608 9.216 11.776 9.216 20.992 0 7.68-2.56 14.336-8.192 19.968-6.144 5.632-14.336 8.704-24.064 8.704-9.216 0-16.384-2.56-22.528-8.192-5.632-4.608-8.704-11.776-10.24-19.968l-14.336 0.512z" fill="#999999" p-id="971"></path><path d="M105.984 866.816c-15.872 0-29.696-4.096-39.424-12.8-11.264-9.728-17.92-23.552-19.456-41.472l-0.512-9.728h39.936l0.512 9.216c0 6.656 2.048 11.264 5.632 14.336 3.584 3.072 7.68 4.608 13.312 4.608 6.144 0 11.264-1.536 14.848-5.12 2.56-2.56 4.096-6.144 4.096-10.24 0-5.12-1.024-8.704-3.584-10.24l-0.512-0.512c-2.56-2.048-7.68-3.584-14.336-3.584H87.04V768H49.152l1.024-10.24c1.536-15.872 7.68-28.672 18.432-37.888 9.728-8.704 23.04-13.312 38.912-13.312 15.36 0 27.648 3.584 37.376 10.752l1.536 1.024c10.24 8.704 15.36 20.48 15.36 34.816 0 12.288-4.096 22.528-12.288 29.696 2.048 1.536 4.096 3.584 6.144 5.632 6.144 6.656 9.216 15.872 9.216 26.112 0 15.36-5.12 27.648-15.872 37.888-11.776 9.728-26.112 14.336-43.008 14.336z m-38.4-46.08c2.048 8.192 5.632 14.336 11.264 18.944 3.072 3.072 7.168 5.12 11.776 6.144-3.584-1.536-7.168-3.584-10.24-6.656-5.632-4.608-9.216-11.264-10.752-18.944h-2.048z m73.728-19.968c2.048 4.096 2.56 9.216 2.56 14.336 0 9.216-3.072 16.896-9.728 23.552-2.56 2.56-5.632 4.608-9.216 6.144 4.096-1.536 7.68-4.096 10.752-6.656 6.656-6.144 9.728-13.824 9.728-24.064 0.512-5.632-1.024-10.24-4.096-13.312z m-53.248-33.792h17.92c6.144 0 10.24-1.024 12.8-3.072 2.048-2.048 3.072-4.608 3.072-8.704 0-4.096-1.024-7.168-3.072-8.704-1.536-1.536-4.608-3.072-12.288-3.072-5.632 0-10.24 1.536-12.8 4.096-3.072 2.56-4.608 7.168-5.12 12.8l-0.512 6.656z m38.4-38.912c2.048 1.024 4.096 2.56 5.632 4.096 6.144 5.632 9.216 13.312 9.216 22.528 0 4.608-0.512 8.192-2.048 12.288 3.072-3.584 4.096-8.192 4.096-13.824 0-8.704-3.072-15.36-8.704-20.48-2.56-2.048-5.12-3.584-8.192-4.608z m-55.808 20.992h1.536c1.536-6.656 5.12-11.776 9.216-16.384-0.512 0-0.512 0.512-1.024 0.512-4.608 4.608-7.68 9.728-9.728 15.872z" fill="#999999" p-id="972"></path><path d="M282.624 239.104h668.672c23.04 0 41.984 18.944 41.984 41.984s-18.944 41.984-41.984 41.984H282.624c-23.04 0-41.984-18.944-41.984-41.984s18.944-41.984 41.984-41.984z m0 250.88h501.248c23.04 0 41.984 18.944 41.984 41.984 0 23.04-18.944 41.984-41.984 41.984H282.624c-23.04 0-41.984-18.944-41.984-41.984 0.512-23.04 18.944-41.984 41.984-41.984z m0 250.88h668.672c23.04 0 41.984 18.944 41.984 41.984 0 23.04-18.944 41.984-41.984 41.984H282.624c-23.04 0-41.984-18.944-41.984-41.984 0.512-23.04 18.944-41.984 41.984-41.984z" fill="#999999" p-id="973"></path></svg>