<?xml version="1.0" standalone="no"?><!DOCTYPE svg PUBLIC "-//W3C//DTD SVG 1.1//EN" "http://www.w3.org/Graphics/SVG/1.1/DTD/svg11.dtd"><svg t="1608177254949" class="icon" viewBox="0 0 1024 1024" version="1.1" xmlns="http://www.w3.org/2000/svg" p-id="4192" xmlns:xlink="http://www.w3.org/1999/xlink" width="200" height="200"><defs><style type="text/css"></style></defs><path d="M932.5 484h-841c-15.4 0-28 12.6-28 28s12.6 28 28 28h841.1c15.4 0 28-12.6 28-28s-12.6-28-28.1-28zM416.4 322.5l91.5-91.5c0 0.2-0.1 0.4-0.1 0.6v168.2c0 15.4 12.6 28 28 28s28-12.6 28-28V231.6c0-0.2-0.1-0.4-0.1-0.6l91.5 91.5c21.8 21.8 57.5 21.8 79.3 0 21.8-21.8 21.8-57.5 0-79.3L576 84.7c-11-11-25.6-16.4-40.1-16.3-14.5-0.1-29.1 5.2-40.1 16.3L337.1 243.3c-21.8 21.8-21.8 57.5 0 79.3 21.8 21.8 57.5 21.8 79.3-0.1z m119.4-118.9c-0.2 0-0.4 0.1-0.6 0.1l0.6-0.6 0.6 0.6c-0.2 0-0.3-0.1-0.6-0.1zM655.3 701.5L563.7 793c0-0.2 0.1-0.4 0.1-0.6V624.1c0-15.4-12.6-28-28-28s-28 12.6-28 28v168.2c0 0.2 0.1 0.4 0.1 0.6l-91.5-91.5c-21.8-21.8-57.5-21.8-79.3 0-21.8 21.8-21.8 57.5 0 79.3l158.6 158.6c11 11 25.6 16.4 40.1 16.3 14.5 0.1 29.1-5.2 40.1-16.3l158.6-158.6c21.8-21.8 21.8-57.5 0-79.3-21.7-21.8-57.4-21.8-79.2 0.1zM535.8 820.4c0.2 0 0.4-0.1 0.6-0.1l-0.6 0.6-0.6-0.6c0.2 0 0.4 0.1 0.6 0.1z" p-id="4193"></path></svg>