<?xml version="1.0" standalone="no"?><!DOCTYPE svg PUBLIC "-//W3C//DTD SVG 1.1//EN" "http://www.w3.org/Graphics/SVG/1.1/DTD/svg11.dtd"><svg t="1604334801559" class="icon" viewBox="0 0 1024 1024" version="1.1" xmlns="http://www.w3.org/2000/svg" p-id="3941" xmlns:xlink="http://www.w3.org/1999/xlink" width="200" height="200"><defs><style type="text/css"></style></defs><path d="M0 1024h1013.1456v-78.848H0V1024zM0 0h436.224v61.952l-94.208 6.144-21.504 18.0224v444.0064c0 84.6848 19.3536 145.2032 57.9584 181.4528 38.5024 36.352 101.888 54.5792 189.952 54.5792 81.1008 0 139.8784-19.3536 176.128-57.9584 36.4544-38.6048 54.5792-101.888 54.5792-189.8496V91.136L776.192 69.3248 678.912 61.952V0H1024v61.952l-92.7744 7.3728-20.7872 21.7088v440.32c0 117.76-31.6416 202.9568-94.9248 255.7952-63.3856 52.8384-165.4784 79.36-306.4832 79.36-73.728 0-138.3424-9.0112-194.048-27.0336-55.6032-17.92-99.328-43.6224-130.9696-77.1072a229.376 229.376 0 0 1-51.6096-90.7264c-10.1376-33.9968-15.1552-82.944-15.1552-146.432V86.1184L95.744 68.096 0 61.952V0z" p-id="3942"></path></svg>